<svg xmlns="http://www.w3.org/2000/svg" xmlns:xlink="http://www.w3.org/1999/xlink" width="420" height="346" viewBox="0 0 420 346"><defs><filter id="a" x="0" y="0" width="420" height="346" filterUnits="userSpaceOnUse"><feOffset input="SourceAlpha"/><feGaussianBlur stdDeviation="6" result="b"/><feFlood flood-opacity="0.161"/><feComposite operator="in" in2="b"/><feComposite in="SourceGraphic"/></filter><clipPath id="c"><path d="M155.419,443.184h389.56a2.66,2.66,0,0,1,2.726,2.589V759.943a2.66,2.66,0,0,1-2.726,2.589H155.419a2.66,2.66,0,0,1-2.726-2.589V445.773A2.66,2.66,0,0,1,155.419,443.184Z" transform="translate(-152.693 -443.184)" fill="#fff"/></clipPath><clipPath id="d"><rect width="327.491" height="23.786" fill="none"/></clipPath></defs><g transform="translate(-328 -7794.108)"><g transform="matrix(1, 0, 0, 1, 328, 7794.11)" filter="url(#a)"><rect width="384" height="310" rx="6" transform="translate(18 18)" fill="#fff"/></g><g transform="translate(187.307 7364.424)"><g transform="translate(152.693 443.184)"><path d="M155.419,443.184h389.56a2.66,2.66,0,0,1,2.726,2.589V759.943a2.66,2.66,0,0,1-2.726,2.589H155.419a2.66,2.66,0,0,1-2.726-2.589V445.773A2.66,2.66,0,0,1,155.419,443.184Z" transform="translate(-152.693 -443.184)" fill="#fff"/><g transform="translate(0)" clip-path="url(#c)"><g transform="translate(0 -0.191)"><path d="M155.419,442.8h39.026V762.532H155.419a2.66,2.66,0,0,1-2.726-2.589V445.392A2.66,2.66,0,0,1,155.419,442.8Z" transform="translate(-152.693 -442.803)" fill="#f0f0f0"/><path d="M236.1,442.8h350.55a2.66,2.66,0,0,1,2.726,2.589v54.081H236.1Z" transform="translate(-194.364 -442.803)" fill="#607c95"/><g transform="translate(0.372 0.495)"><path d="M156.163,443.793H544.979a2.66,2.66,0,0,1,2.726,2.589V759.844a2.661,2.661,0,0,1-2.726,2.589H156.163a2.66,2.66,0,0,1-2.726-2.589V446.382A2.66,2.66,0,0,1,156.163,443.793Z" transform="translate(-153.437 -443.793)" fill="none" stroke="#ccc" stroke-width="1.026"/></g><g transform="translate(12.67 10.465)"><rect width="17.887" height="12.74" transform="translate(0 45.473)" fill="#ccc"/><rect width="17.887" height="12.74" transform="translate(0 67.414)" fill="#ccc"/><rect width="17.887" height="12.74" transform="translate(0 88.647)" fill="#ccc"/><rect width="17.887" height="12.032" transform="translate(0 110.588)" fill="#ccc"/><rect width="17.887" height="13.448" transform="translate(0 131.114)" fill="#ccc"/><path d="M184.145,467.046V482.34h-3.293V467.046Z" transform="translate(-179.431 -465.38)" fill="#ccc"/><path d="M194.714,463.717v16.96h-3.293v-16.96Z" transform="translate(-184.712 -463.717)" fill="#ccc"/><path d="M205.378,472.52v12.555h-3.293V474.689Z" transform="translate(-190.039 -468.115)" fill="#ccc"/><path d="M202.083,470.946v-2.194a1.666,1.666,0,0,1,1.658-1.666h1.635v1.689Z" transform="translate(-190.038 -465.4)" fill="#ccc"/></g></g></g></g><g transform="translate(212.501 520.764)"><line y2="156.768" transform="translate(39.441 0)" fill="none" stroke="#e2e2e2" stroke-miterlimit="10" stroke-width="2.334" stroke-dasharray="14.006"/><line y2="156.768" transform="translate(284.756 0)" fill="none" stroke="#e2e2e2" stroke-miterlimit="10" stroke-width="2.334" stroke-dasharray="14.006"/><line y2="156.768" transform="translate(88.504 0)" fill="none" stroke="#e2e2e2" stroke-miterlimit="10" stroke-width="2.334" stroke-dasharray="14.006"/><line y2="156.768" transform="translate(137.567 0)" fill="none" stroke="#e2e2e2" stroke-miterlimit="10" stroke-width="2.334" stroke-dasharray="14.006"/><line y2="156.768" transform="translate(235.693 0)" fill="none" stroke="#e2e2e2" stroke-miterlimit="10" stroke-width="2.334" stroke-dasharray="14.006"/><line y2="156.768" transform="translate(186.63 0)" fill="none" stroke="#e2e2e2" stroke-miterlimit="10" stroke-width="2.334" stroke-dasharray="14.006"/><path d="M287.939,598.222V755.073H597.463" transform="translate(-280.07 -598.221)" fill="none" stroke="#e2e2e2" stroke-miterlimit="10" stroke-width="2.334"/><line x2="7.869" transform="translate(0 3.182)" fill="none" stroke="#e2e2e2" stroke-miterlimit="10" stroke-width="2.334" stroke-dasharray="14.006"/><line x2="7.869" transform="translate(0 147.264)" fill="none" stroke="#e2e2e2" stroke-miterlimit="10" stroke-width="2.334" stroke-dasharray="14.006"/><line x2="7.869" transform="translate(0 49.138)" fill="none" stroke="#e2e2e2" stroke-miterlimit="10" stroke-width="2.334" stroke-dasharray="14.006"/><line x2="7.869" transform="translate(0 98.201)" fill="none" stroke="#e2e2e2" stroke-miterlimit="10" stroke-width="2.334" stroke-dasharray="14.006"/><g transform="translate(42.829 11.36)"><rect width="40.983" height="18.41" transform="translate(0 126.999)" fill="#f0f0f0"/><rect width="40.983" height="107.63" transform="translate(49.685 37.778)" fill="#f0f0f0"/><rect width="40.983" height="145.408" transform="translate(98.778)" fill="#f0f0f0"/><rect width="40.983" height="103.654" transform="translate(148.853 41.755)" fill="#f0f0f0"/><rect width="40.983" height="18.41" transform="translate(196.54 126.999)" fill="#f0f0f0"/></g><g transform="translate(23.583 165.276)"><text transform="translate(18.003 5)" fill="#999" font-size="5" font-family="Montserrat-SemiBold, Montserrat" font-weight="600" letter-spacing="0.2em"><tspan x="0" y="0">LOW PERFORMER</tspan></text><text transform="translate(233.103 5)" fill="#999" font-size="5" font-family="Montserrat-SemiBold, Montserrat" font-weight="600" letter-spacing="0.2em"><tspan x="-61.31" y="0">HIGH PERFORMER</tspan></text><line x2="11.134" transform="translate(0 3.073)" fill="none" stroke="#999" stroke-miterlimit="10" stroke-width="2"/><line x1="11.134" transform="translate(265.746 3.073)" fill="none" stroke="#999" stroke-miterlimit="10" stroke-width="2"/></g></g><g transform="translate(265.083 704.7)"><path d="M785.765,981.439l6.585,3.817-1.742-7.2,5.812-4.84-7.663-.632-2.992-6.787-3,6.787-7.663.632,5.813,4.84-1.738,7.2Z" transform="translate(-576.041 -965.801)" fill="#1772cb"/><path d="M686.313,981.439l6.585,3.817-1.742-7.2,5.812-4.84-7.663-.632-2.992-6.787-3,6.787-7.663.632,5.812,4.84-1.738,7.2Z" transform="translate(-526.355 -965.801)" fill="#1772cb"/><path d="M586.86,981.439l6.585,3.817-1.742-7.2,5.813-4.84-7.663-.632L586.86,965.8l-3,6.787-7.663.632,5.812,4.84-1.738,7.2Z" transform="translate(-476.668 -965.801)" fill="#1772cb"/><path d="M487.407,981.439l6.585,3.817-1.742-7.2,5.813-4.84-7.663-.632-2.992-6.787-3,6.787-7.663.632,5.812,4.84-1.738,7.2Z" transform="translate(-426.981 -965.801)" fill="#1772cb"/><path d="M387.954,981.439l6.585,3.817-1.742-7.2,5.813-4.84-7.663-.632-2.992-6.787-3,6.787-7.663.632,5.812,4.84-1.738,7.2Z" transform="translate(-377.294 -965.801)" fill="#1772cb"/></g><path d="M351.034,758.522c27.475,0,42.383-33.96,56.8-66.809,15.285-34.81,32.948-70.79,65.857-70.79s49.063,36.01,66.046,70.849c15.474,31.384,31.362,66.75,56.611,66.75" transform="translate(-99.092 -88.799)" fill="none" stroke="#607c95" stroke-miterlimit="10" stroke-width="8"/><g transform="translate(463.205 646.087)" fill="#1772cb" stroke="#fff" stroke-linecap="round" stroke-miterlimit="10" stroke-width="2"><circle cx="9.157" cy="9.157" r="9.157" stroke="none"/><circle cx="9.157" cy="9.157" r="10.157" fill="none"/></g><text transform="translate(215.246 461.3)" fill="#fff" font-size="10" font-family="Montserrat-SemiBold, Montserrat" font-weight="600"><tspan x="0" y="0">YOU </tspan><tspan y="0" font-size="9" font-family="Montserrat-Italic, Montserrat" font-weight="400" font-style="italic">vs</tspan><tspan y="0" xml:space="preserve"> YOUR CATEGORY</tspan></text><g transform="translate(215.235 474.536)"><rect width="59.701" height="32.51" rx="2.299" transform="translate(0)" fill="#1772cb" stroke="#fff" stroke-miterlimit="10" stroke-width="0.889"/><g transform="translate(16.253 5.809)"><text transform="translate(25 22.391)" fill="#fff" font-size="13" font-family="Montserrat-Bold, Montserrat" font-weight="700"><tspan x="-24.778" y="0">19%</tspan></text><text transform="translate(29 6.392)" fill="#fff" font-size="12" font-family="Montserrat-SemiBold, Montserrat" font-weight="600"><tspan x="-32.64" y="0">ACoS</tspan></text></g></g><g transform="translate(299.22 474.536)"><rect width="59.701" height="32.51" rx="2.299" transform="translate(0)" fill="#ccc" stroke="#fff" stroke-miterlimit="10" stroke-width="1"/><g transform="translate(11.351 3.559)"><text transform="translate(37 22.391)" fill="#fff" font-size="13" font-family="Montserrat-Bold, Montserrat" font-weight="700"><tspan x="-37.427" y="0">$0.64</tspan></text><text transform="translate(29.117 10)" fill="#fff" font-size="12" font-family="Montserrat-SemiBold, Montserrat" font-weight="600"><tspan x="-26.16" y="0">CPC</tspan></text></g></g><g transform="translate(383.206 474.536)"><rect width="59.701" height="32.51" rx="2.299" transform="translate(0)" fill="#ccc" stroke="#fff" stroke-miterlimit="10" stroke-width="1"/><g transform="translate(7.324 4.899)"><text transform="translate(42 22.391)" fill="#fff" font-size="13" font-family="Montserrat-Bold, Montserrat" font-weight="700"><tspan x="-39.702" y="0">0.24%</tspan></text><text transform="translate(32.236 6.391)" fill="#fff" font-size="12" font-family="Montserrat-SemiBold, Montserrat" font-weight="600"><tspan x="-24.624" y="0">CTR</tspan></text></g></g><g transform="translate(467.191 474.536)"><rect width="59.701" height="32.51" rx="2.299" fill="#ccc" stroke="#fff" stroke-miterlimit="10" stroke-width="1"/><g transform="translate(13.943 6.639)"><text transform="translate(30 22.391)" fill="#fff" font-size="13" font-family="Montserrat-Bold, Montserrat" font-weight="700"><tspan x="-30.472" y="0">5.2%</tspan></text><text transform="translate(28 6.391)" fill="#fff" font-size="12" font-family="Montserrat-SemiBold, Montserrat" font-weight="600"><tspan x="-26.004" y="0">CVR</tspan></text></g></g><g transform="translate(202.403 728.945)"><g transform="translate(0 0)" clip-path="url(#d)"><g transform="translate(80.666 6.584)"><text transform="translate(81 12)" fill="#1772cb" font-size="12" font-family="Montserrat-SemiBold, Montserrat" font-weight="600" letter-spacing="0.05em"><tspan x="-81.09" y="0">TOP 20%, GREAT WORK!</tspan></text><text transform="translate(343.259 12)" fill="#1772cb" font-size="12" font-family="Montserrat-SemiBold, Montserrat" font-weight="600" letter-spacing="0.05em"><tspan x="-74.208" y="0">RIGHT IN THE MIDDLE</tspan></text><text transform="translate(625.521 12)" fill="#1772cb" font-size="12" font-family="Montserrat-SemiBold, Montserrat" font-weight="600" letter-spacing="0.05em"><tspan x="-117.084" y="0">BOTTOM 20%, LOTS OF POTENTIAL</tspan></text><text transform="translate(990.261 12)" fill="#1772cb" font-size="12" font-family="Montserrat-SemiBold, Montserrat" font-weight="600" letter-spacing="0.05em"><tspan x="-116.172" y="0">BOTTOM 40%, LETS IMPROVE THIS</tspan></text></g></g></g></g></g></svg>